<svg xmlns="http://www.w3.org/2000/svg" width="228.85" height="42.534" viewBox="0 0 228.85 42.534"><defs><style>.a{fill:#221f1f;}.b{fill:#93f;}.c{fill:#fff;}.d{fill:none;}</style></defs><path class="a" d="M-36.655-83.737h1.746l14.744-33.287-1.182-2.774-11.2,25.633-13.51-30.513h-8.836ZM-9.943-94.166-23.4-124.679h-8.886l18.236,40.941h1.8L5.828-124.679H3.414Zm20.754,9.709H19.03v-40.222H10.811Zm47.311-2.106H35.365l22.808-36.781v-1.335H27.917v2.106H48.824L25.964-85.69v1.233H58.122ZM81.8-89.182a8.747,8.747,0,0,1-5.858,2.273c-2.106,0-4.467-.681-5.7-2.273a10.332,10.332,0,0,1-1.952-6.575c0-2.774.873-6.216,2.465-7.757,1.644-1.541,4.52-2.363,7.346-2.363h8.425v10.746a15.72,15.72,0,0,1-4.726,5.95m12.945-22.5A12.635,12.635,0,0,0,90.485-121.7c-2.876-2.517-6.986-3.7-11.712-3.7a22.367,22.367,0,0,0-8.322,1.593,19.662,19.662,0,0,0-7.244,4.726l1.13,1.13a21.458,21.458,0,0,1,5.856-3.7,16.911,16.911,0,0,1,6.164-1.233,9.867,9.867,0,0,1,7.5,2.877c1.747,1.849,2.671,4.521,2.671,7.911v4.109H76.769c-4.777,0-9.3.976-12.277,2.979-3.031,2.055-4.52,6.164-4.52,9.452a11.187,11.187,0,0,0,3.441,8.579,12.75,12.75,0,0,0,9.042,3.236,17.066,17.066,0,0,0,9.195-2.671,16.84,16.84,0,0,0,5.8-6.061l5.908,9.606h1.387Zm37.191,25.12H109.234l22.808-36.781v-1.335H101.735v2.106h20.907L99.783-85.69v1.233H131.94Z" transform="translate(54.891 125.398)"/><path class="b" d="M-72.057-35.948A17.107,17.107,0,0,0-77.338-48.6a17.066,17.066,0,0,0-12.6-5.237A17.26,17.26,0,0,0-102.629-48.6a17.1,17.1,0,0,0-5.278,12.648,17.12,17.12,0,0,0,5.278,12.684A17.286,17.286,0,0,0-89.94-17.98a17.092,17.092,0,0,0,12.6-5.283,17.122,17.122,0,0,0,5.281-12.684" transform="translate(300.908 58.981)"/><path class="c" d="M-36.626-20.367c0-3.449-.894-6.088-2.68-7.835a8.247,8.247,0,0,0-6-2.3,5.974,5.974,0,0,0-4.6,2.086,6.723,6.723,0,0,0-1.4,2.044V-30.2h-3.535V-3.932h3.621V-15.3a9.59,9.59,0,0,0,1.4,2A5.849,5.849,0,0,0-45.4-11.339a8.457,8.457,0,0,0,2.467-.385,9,9,0,0,0,2.9-1.319c2.3-1.659,3.4-4.088,3.4-7.323m-9.281-9.24a4.638,4.638,0,0,1,4.856,3.152,9.12,9.12,0,0,1,.508,2.3,6.984,6.984,0,0,1,0,.981l-.042,5.025A7.585,7.585,0,0,1-41.307-15a4.465,4.465,0,0,1-4.515,2.81,4.824,4.824,0,0,1-4.64-3.235,7.961,7.961,0,0,1-.766-3.152v-4.94a7.114,7.114,0,0,1,.851-2.937,5.117,5.117,0,0,1,4.469-3.152" transform="translate(252.743 44.934)"/><path class="c" d="M-7.438,0h-3.617l-.083,28.827v.042h3.7Z" transform="translate(230.666 4.384)"/><path class="d" d="M0-128.027H228.85v42.534H0Z" transform="translate(0 128.027)"/></svg>